<?xml version="1.0" encoding="iso-8859-1"?>
<!-- Generator: Adobe Illustrator 19.0.0, SVG Export Plug-In . SVG Version: 6.00 Build 0)  -->
<svg xmlns="http://www.w3.org/2000/svg" xmlns:xlink="http://www.w3.org/1999/xlink" version="1.1" id="Layer_1" x="0px" y="0px" viewBox="0 0 512 512" style="enable-background:new 0 0 512 512;" xml:space="preserve">
<g>
	<g>
		<polygon points="356.174,166.957 356.174,200.348 389.565,200.348 389.565,311.652 422.957,311.652 422.957,166.957   "/>
	</g>
</g>
<g>
	<g>
		<rect x="155.826" y="133.565" width="33.391" height="33.391"/>
	</g>
</g>
<g>
	<g>
		<polygon points="89.044,166.957 89.044,311.652 122.435,311.652 122.435,200.348 155.826,200.348 155.826,166.957   "/>
	</g>
</g>
<g>
	<g>
		<polygon points="322.783,378.435 322.783,411.826 289.391,411.826 289.391,445.217 356.174,445.217 356.174,378.435   "/>
	</g>
</g>
<g>
	<g>
		<rect x="122.435" y="445.217" width="33.391" height="33.391"/>
	</g>
</g>
<g>
	<g>
		<rect x="356.174" y="445.217" width="33.391" height="33.391"/>
	</g>
</g>
<g>
	<g>
		<polygon points="189.217,411.826 189.217,378.435 155.826,378.435 155.826,445.217 222.609,445.217 222.609,411.826   "/>
	</g>
</g>
<g>
	<g>
		<rect x="89.044" y="478.609" width="33.391" height="33.391"/>
	</g>
</g>
<g>
	<g>
		<rect x="389.565" y="478.609" width="33.391" height="33.391"/>
	</g>
</g>
<g>
	<g>
		<polygon points="456.348,133.565 456.348,345.043 389.565,345.043 389.565,311.652 356.174,311.652 356.174,378.435     489.739,378.435 489.739,133.565   "/>
	</g>
</g>
<g>
	<g>
		<rect x="189.217" y="166.957" width="133.565" height="33.391"/>
	</g>
</g>
<g>
	<g>
		<rect x="55.652" y="66.783" width="33.391" height="66.783"/>
	</g>
</g>
<g>
	<g>
		<rect x="422.957" y="66.783" width="33.391" height="66.783"/>
	</g>
</g>
<g>
	<g>
		<rect x="122.435" width="267.13" height="33.391"/>
	</g>
</g>
<g>
	<g>
		<rect x="89.044" y="33.391" width="33.391" height="33.391"/>
	</g>
</g>
<g>
	<g>
		<rect x="389.565" y="33.391" width="33.391" height="33.391"/>
	</g>
</g>
<g>
	<g>
		<rect x="322.783" y="133.565" width="33.391" height="33.391"/>
	</g>
</g>
<g>
	<g>
		<polygon points="122.435,311.652 122.435,345.043 55.652,345.043 55.652,133.565 22.261,133.565 22.261,378.435 155.826,378.435     155.826,311.652   "/>
	</g>
</g>
<g>
</g>
<g>
</g>
<g>
</g>
<g>
</g>
<g>
</g>
<g>
</g>
<g>
</g>
<g>
</g>
<g>
</g>
<g>
</g>
<g>
</g>
<g>
</g>
<g>
</g>
<g>
</g>
<g>
</g>
</svg>
