<svg xmlns="http://www.w3.org/2000/svg" x="0px" y="0px" viewBox="0 0 512 512"><g><g><rect fill="none" stroke="currentColor" stroke-width="2" x="189.217" y="356.174" width="144.696" height="33.391"/></g></g><g><g><polygon fill="none" stroke="currentColor" stroke-width="2" points="300.522,233.739 300.522,200.348 189.217,200.348 189.217,144.696 155.826,144.696 155.826,200.348     122.435,200.348 122.435,233.739 155.826,233.739 155.826,267.13 122.435,267.13 122.435,300.522 155.826,300.522     155.826,356.174 189.217,356.174 189.217,300.522 300.522,300.522 300.522,267.13 189.217,267.13 189.217,233.739   "/></g></g><g><g><rect fill="none" stroke="currentColor" stroke-width="2" x="189.217" y="111.304" width="144.696" height="33.391"/></g></g><g><g><rect fill="none" stroke="currentColor" stroke-width="2" x="333.913" y="144.696" width="33.391" height="33.391"/></g></g><g><g><rect fill="none" stroke="currentColor" stroke-width="2" x="333.913" y="322.783" width="33.391" height="33.391"/></g></g><g><g><rect fill="none" stroke="currentColor" stroke-width="2" x="66.783" y="66.783" width="33.391" height="33.391"/></g></g><g><g><g><rect fill="none" stroke="currentColor" stroke-width="2" x="166.957" width="178.087" height="33.391"/><rect fill="none" stroke="currentColor" stroke-width="2" x="100.174" y="33.391" width="66.783" height="33.391"/><rect fill="none" stroke="currentColor" stroke-width="2" x="345.043" y="33.391" width="66.783" height="33.391"/><rect fill="none" stroke="currentColor" stroke-width="2" x="411.826" y="66.783" width="33.391" height="33.391"/></g></g></g><g><g><rect fill="none" stroke="currentColor" stroke-width="2" x="445.217" y="100.174" width="33.391" height="66.783"/></g></g><g><g><rect fill="none" stroke="currentColor" stroke-width="2" x="478.609" y="166.957" width="33.391" height="178.087"/></g></g><g><g><rect fill="none" stroke="currentColor" stroke-width="2" x="445.217" y="345.043" width="33.391" height="66.783"/></g></g><g><g><g><rect fill="none" stroke="currentColor" stroke-width="2" x="33.391" y="100.174" width="33.391" height="66.783"/><rect fill="none" stroke="currentColor" stroke-width="2" x="66.783" y="411.826" width="33.391" height="33.391"/><rect fill="none" stroke="currentColor" stroke-width="2" y="166.957" width="33.391" height="178.087"/><rect fill="none" stroke="currentColor" stroke-width="2" x="33.391" y="345.043" width="33.391" height="66.783"/></g></g></g><g><g><g><rect fill="none" stroke="currentColor" stroke-width="2" x="166.957" y="478.609" width="178.087" height="33.391"/><rect fill="none" stroke="currentColor" stroke-width="2" x="345.043" y="445.217" width="66.783" height="33.391"/><rect fill="none" stroke="currentColor" stroke-width="2" x="100.174" y="445.217" width="66.783" height="33.391"/></g></g></g><g><g><rect fill="none" stroke="currentColor" stroke-width="2" x="411.826" y="411.826" width="33.391" height="33.391"/></g></g></svg>