<svg xmlns="http://www.w3.org/2000/svg" x="0px" y="0px" viewBox="0 0 512 512"><g><g><rect fill="none" stroke="currentColor" stroke-width="2" x="233.739" y="66.783" width="144.696" height="33.391"/></g></g><g><g><rect fill="none" stroke="currentColor" stroke-width="2" x="233.739" y="133.565" width="144.696" height="33.391"/></g></g><g><g><g><rect fill="none" stroke="currentColor" stroke-width="2" x="133.565" y="478.609" width="345.043" height="33.391"/><rect fill="none" stroke="currentColor" stroke-width="2" x="478.609" y="200.348" width="33.391" height="278.261"/></g></g></g><g><g><rect fill="none" stroke="currentColor" stroke-width="2" x="200.348" y="267.13" width="33.391" height="33.391"/></g></g><g><g><rect fill="none" stroke="currentColor" stroke-width="2" x="289.391" y="267.13" width="33.391" height="33.391"/></g></g><g><g><rect fill="none" stroke="currentColor" stroke-width="2" x="378.435" y="267.13" width="33.391" height="33.391"/></g></g><g><g><rect fill="none" stroke="currentColor" stroke-width="2" x="200.348" y="333.913" width="33.391" height="33.391"/></g></g><g><g><rect fill="none" stroke="currentColor" stroke-width="2" x="289.391" y="333.913" width="33.391" height="33.391"/></g></g><g><g><rect fill="none" stroke="currentColor" stroke-width="2" x="378.435" y="333.913" width="33.391" height="33.391"/></g></g><g><g><rect fill="none" stroke="currentColor" stroke-width="2" x="200.348" y="400.696" width="33.391" height="33.391"/></g></g><g><g><rect fill="none" stroke="currentColor" stroke-width="2" x="289.391" y="400.696" width="33.391" height="33.391"/></g></g><g><g><rect fill="none" stroke="currentColor" stroke-width="2" x="378.435" y="400.696" width="33.391" height="33.391"/></g></g><g><g><path fill="none" stroke="currentColor" stroke-width="2" d="M445.217,166.957V0H166.957v33.391v133.565h-33.391v33.391h33.391v33.391h278.261v-33.391h33.391v-33.391H445.217z     M411.827,166.957v33.391H200.349V33.391h211.478V166.957z"/></g></g><g><g><rect fill="none" stroke="currentColor" stroke-width="2" x="33.391" y="166.957" width="66.783" height="33.391"/></g></g><g><g><rect fill="none" stroke="currentColor" stroke-width="2" y="200.348" width="33.391" height="278.261"/></g></g><g><g><g><rect fill="none" stroke="currentColor" stroke-width="2" x="33.391" y="478.609" width="66.783" height="33.391"/><rect fill="none" stroke="currentColor" stroke-width="2" x="100.174" y="200.348" width="33.391" height="278.261"/></g></g></g></svg>