<svg xmlns="http://www.w3.org/2000/svg" x="0px" y="0px" viewBox="0 0 512 512"><g><g><rect fill="currentColor" x="66.783" y="66.783" width="33.391" height="33.391"/></g></g><g><g><g><rect fill="currentColor" x="166.957" width="178.087" height="33.391"/><rect fill="currentColor" x="100.174" y="33.391" width="66.783" height="33.391"/><rect fill="currentColor" x="345.043" y="33.391" width="66.783" height="33.391"/><rect fill="currentColor" x="411.826" y="66.783" width="33.391" height="33.391"/></g></g></g><g><g><rect fill="currentColor" x="445.217" y="100.174" width="33.391" height="66.783"/></g></g><g><g><rect fill="currentColor" x="478.609" y="166.957" width="33.391" height="178.087"/></g></g><g><g><rect fill="currentColor" x="445.217" y="345.043" width="33.391" height="66.783"/></g></g><g><g><g><rect fill="currentColor" x="33.391" y="100.174" width="33.391" height="66.783"/><rect fill="currentColor" y="166.957" width="33.391" height="178.087"/><rect fill="currentColor" x="66.783" y="411.826" width="33.391" height="33.391"/><rect fill="currentColor" x="33.391" y="345.043" width="33.391" height="66.783"/></g></g></g><g><g><g><rect fill="currentColor" x="166.957" y="478.609" width="178.087" height="33.391"/><rect fill="currentColor" x="100.174" y="445.217" width="66.783" height="33.391"/><rect fill="currentColor" x="345.043" y="445.217" width="66.783" height="33.391"/></g></g></g><g><g><rect fill="currentColor" x="411.826" y="411.826" width="33.391" height="33.391"/></g></g><g><g><rect fill="currentColor" x="233.739" y="378.435" width="33.391" height="33.391"/></g></g><g><g><rect fill="currentColor" x="233.739" y="278.261" width="33.391" height="66.783"/></g></g><g><g><rect fill="currentColor" x="267.13" y="244.87" width="44.522" height="33.391"/></g></g><g><g><rect fill="currentColor" x="311.652" y="133.565" width="33.391" height="111.304"/></g></g><g><g><rect fill="currentColor" x="189.217" y="100.174" width="122.435" height="33.391"/></g></g><g><g><rect fill="currentColor" x="155.826" y="133.565" width="33.391" height="66.783"/></g></g></svg>