<svg xmlns="http://www.w3.org/2000/svg" x="0px" y="0px" viewBox="0 0 512 512"><g><g><rect fill="currentColor" x="33.391" y="33.391" width="33.391" height="33.391"/></g></g><g><g><rect fill="currentColor" x="445.217" y="33.391" width="33.391" height="33.391"/></g></g><g><g><rect fill="currentColor" x="33.391" y="445.217" width="33.391" height="33.391"/></g></g><g><g><rect fill="currentColor" x="445.217" y="445.217" width="33.391" height="33.391"/></g></g><g><g><rect fill="currentColor" y="66.783" width="33.391" height="378.435"/></g></g><g><g><rect fill="currentColor" x="478.609" y="66.783" width="33.391" height="378.435"/></g></g><g><g><rect fill="currentColor" x="66.783" width="378.435" height="33.391"/></g></g><g><g><rect fill="currentColor" x="66.783" y="478.609" width="378.435" height="33.391"/></g></g><g><g><rect fill="currentColor" x="122.435" y="189.217" width="33.391" height="133.565"/></g></g><g><g><rect fill="currentColor" x="356.174" y="189.217" width="33.391" height="133.565"/></g></g><g><g><rect fill="currentColor" x="189.217" y="122.435" width="133.565" height="33.391"/></g></g><g><g><rect fill="currentColor" x="189.217" y="356.174" width="133.565" height="33.391"/></g></g><g><g><rect fill="currentColor" x="155.826" y="155.826" width="33.391" height="33.391"/></g></g><g><g><rect fill="currentColor" x="322.783" y="155.826" width="33.391" height="33.391"/></g></g><g><g><rect fill="currentColor" x="155.826" y="322.783" width="33.391" height="33.391"/></g></g><g><g><rect fill="currentColor" x="322.783" y="322.783" width="33.391" height="33.391"/></g></g><g><g><rect fill="currentColor" x="378.435" y="89.044" width="44.522" height="44.522"/></g></g></svg>