<?xml version="1.0" encoding="UTF-8" standalone="no"?>
<svg width="319px" height="68px" viewBox="0 0 319 68" version="1.1" xmlns="http://www.w3.org/2000/svg" xmlns:xlink="http://www.w3.org/1999/xlink" xmlns:sketch="http://www.bohemiancoding.com/sketch/ns">
	<!-- Generator: Sketch 3.3.3 (12072) - http://www.bohemiancoding.com/sketch -->
	<title>sxs-logo</title>
	<desc>Created with Sketch.</desc>
	<defs></defs>
	<g id="Page-1" stroke="none" stroke-width="1" fill="none" fill-rule="evenodd" sketch:type="MSPage">
		<g id="01-Home-Page" sketch:type="MSArtboardGroup" transform="translate(-156.000000, -103.000000)" fill="#FFFFFF">
			<g id="sxs-logo" sketch:type="MSLayerGroup" transform="translate(156.000000, 103.000000)">
				<path d="M146.088836,38.8806847 C142.499321,38.8806847 138.91103,40.5567928 137.65799,43.8256937 L137.570434,43.8256937 L137.570434,31.5036036 L151.474487,31.5036036 L151.474487,27.9464685 C150.691069,28.0454054 149.905509,28.0947207 149.122091,28.0947207 C146.507944,28.0947207 145.932703,27.0566486 145.932703,24.6849189 L145.932703,15.742 L151.474487,15.742 L151.474487,9.71358559 L145.932703,9.71358559 L145.932703,1.90736937 L135.581429,1.90736937 L135.581429,9.71358559 L130.981033,9.71358559 L130.981033,15.742 L135.581429,15.742 L135.581429,27.9951712 C135.581429,29.2648108 135.749807,30.312991 136.036356,31.1976036 L135.927676,31.1976036 L135.927676,60.3754234 L137.570434,60.3754234 L137.570434,55.6751532 L137.65799,55.6751532 C138.003319,56.7790811 140.251932,60.8658198 146.088836,60.8658198 C149.159134,60.8658198 155.731085,59.3946306 155.731085,49.3833153 C155.731085,43.5396036 152.617927,38.8806847 146.088836,38.8806847 L146.088836,38.8806847 L146.088836,38.8806847 Z M146.088836,59.5171532 C140.035183,59.5171532 137.614212,54.5314054 137.614212,49.3833153 C137.614212,44.1117838 140.295098,40.2293514 146.088836,40.2293514 C151.407135,40.2293514 154.087715,44.7243964 154.087715,49.3833153 C154.087715,54.203964 151.925128,59.5171532 146.088836,59.5171532 L146.088836,59.5171532 L146.088836,59.5171532 Z" id="Fill-1" sketch:type="MSShapeGroup"></path>
				<path d="M166.843429,58.5366667 L158.585248,39.3707748 L156.639715,39.3707748 L165.935412,60.2532072 C164.897896,63.0314054 164.293266,64.5846847 163.644551,65.1972973 C162.519479,66.2595676 161.353078,66.5468829 159.017826,66.5468829 L159.017826,67.8946306 C161.524211,67.8946306 163.039002,67.8128468 164.206628,66.9554955 C165.157505,66.2595676 165.892858,64.6652432 166.800263,62.6230991 L176.312096,39.3707748 L174.453508,39.3707748 L166.843429,58.5366667" id="Fill-2" sketch:type="MSShapeGroup"></path>
				<path d="M193.347369,32.8332793 L191.703081,32.8332793 L191.703081,39.3698559 L187.596185,39.3698559 L187.596185,40.7206667 L191.703081,40.7206667 L191.703081,55.389982 C191.531947,60.130991 194.774298,60.5797297 198.146452,60.3745045 L198.146452,59.0267568 C195.032375,59.1088468 193.347369,58.782018 193.347369,55.389982 L193.347369,40.7206667 L198.189924,40.7206667 L198.189924,39.3698559 L193.347369,39.3698559 L193.347369,32.8332793" id="Fill-3" sketch:type="MSShapeGroup"></path>
				<path d="M210.641639,38.8806847 C207.183459,38.8806847 203.810692,40.7197477 202.686538,43.8661261 L202.5999,43.8661261 L202.5999,31.1976036 L200.957142,31.1976036 L200.957142,60.3754234 L202.5999,60.3754234 L202.5999,49.0145225 C202.5999,43.8661261 205.626114,40.2293514 210.599085,40.2293514 C216.652126,40.2293514 216.911122,44.9287027 216.911122,47.0942883 L216.911122,60.3754234 L218.555105,60.3754234 L218.555105,47.3806847 C218.555105,44.8052613 218.46816,38.8806847 210.641639,38.8806847" id="Fill-4" sketch:type="MSShapeGroup"></path>
				<path d="M231.958309,38.8806847 C225.25686,38.8806847 222.055839,44.4796577 222.142477,50.2397477 C222.055839,56.0442523 225.471772,60.8658198 231.958309,60.8658198 C237.233136,60.8658198 240.691317,58.1681802 241.556168,53.2648288 L239.914328,53.2648288 C239.135197,57.146036 236.15123,59.5171532 231.958309,59.5171532 C226.466733,59.5171532 223.699515,55.0221081 223.785235,50.0767928 L241.72975,50.0767928 C242.032525,44.0713514 238.919367,38.8806847 231.958309,38.8806847 L231.958309,38.8806847 L231.958309,38.8806847 Z M223.785235,48.729045 C224.1324,44.5617477 227.027585,40.2293514 231.958309,40.2293514 C237.058635,40.2293514 239.99913,44.3160901 240.086074,48.729045 L223.785235,48.729045 L223.785235,48.729045 Z" id="Fill-5" sketch:type="MSShapeGroup"></path>
				<path d="M266.02855,48.8929189 C262.439953,48.1571712 258.634607,47.626036 258.634607,44.2756577 C258.634607,41.2919279 262.007068,40.2293514 265.034507,40.2293514 C268.752908,40.2293514 271.564516,41.7823243 271.606764,45.582973 L273.250747,45.582973 C273.250747,40.8024505 269.746951,38.8806847 265.034507,38.8806847 C261.273552,38.8806847 256.991543,40.1071351 256.991543,44.2756577 C256.991543,48.5654775 260.796276,49.5055315 264.646012,50.2406667 C268.45044,50.9767207 272.255785,51.5075495 272.255785,55.0634595 C272.255785,58.7002342 268.104193,59.5171532 265.208089,59.5171532 C261.186607,59.5171532 258.116003,57.2694775 257.857313,53.387045 L256.214555,53.387045 C256.342828,58.2907027 260.149398,60.8658198 265.208089,60.8658198 C269.099155,60.8658198 273.897625,59.5989369 273.897625,55.0634595 C273.897625,50.648973 270.43822,49.6684865 266.02855,48.8929189" id="Fill-6" sketch:type="MSShapeGroup"></path>
				<path d="M286.435978,38.8806847 C279.734223,38.8806847 276.534426,44.4796577 276.621064,50.2397477 C276.534426,56.0442523 279.950359,60.8658198 286.435978,60.8658198 C291.710499,60.8658198 295.169904,58.1681802 296.033531,53.2648288 L294.392916,53.2648288 C293.613784,57.146036 290.631042,59.5171532 286.435978,59.5171532 C280.944096,59.5171532 278.177184,55.0221081 278.264129,50.0767928 L296.208338,50.0767928 C296.511112,44.0713514 293.397036,38.8806847 286.435978,38.8806847 L286.435978,38.8806847 L286.435978,38.8806847 Z M278.264129,48.729045 C278.610069,44.5617477 281.506173,40.2293514 286.435978,40.2293514 C291.53906,40.2293514 294.478635,44.3160901 294.564661,48.729045 L278.264129,48.729045 L278.264129,48.729045 Z" id="Fill-7" sketch:type="MSShapeGroup"></path>
				<path d="M317.653281,59.0267568 C316.184106,59.0267568 316.184106,57.7194414 316.184106,56.4942162 L316.184106,44.3574414 C316.184106,40.025045 312.292734,38.8806847 308.401669,38.8806847 C303.169395,38.8806847 300.141957,41.2110631 299.926739,45.8283243 L301.569803,45.8283243 C301.785021,42.1906306 304.423659,40.2293514 308.401669,40.2293514 C313.46036,40.2293514 314.584513,43.4161622 314.584513,44.3574414 C314.584513,47.7899099 314.282657,48.2386486 306.932187,48.729045 C303.256034,49.0154414 298.759419,50.0366667 298.759419,54.940018 C298.759419,59.3541982 302.00177,60.8658198 306.194691,60.8658198 C310.433227,60.8658198 313.416888,58.7002342 314.454097,56.2069009 L314.541347,56.2069009 L314.541347,57.3111351 C314.541347,59.0267568 314.929536,60.3754234 317.523171,60.3754234 C317.956974,60.3754234 318.38894,60.2936396 318.864379,60.2115495 L318.864379,58.9045405 C318.345468,58.9863243 317.956974,59.0267568 317.653281,59.0267568 L317.653281,59.0267568 L317.653281,59.0267568 Z M314.541347,52.3658198 C314.541347,53.4691351 313.720581,59.5171532 306.238163,59.5171532 C302.347098,59.5171532 300.402178,57.4737838 300.402178,54.940018 C300.402178,51.7936396 302.607319,50.4854054 306.498384,50.0767928 C309.697262,49.6684865 313.243305,49.8323604 314.541347,48.442955 L314.541347,52.3658198 L314.541347,52.3658198 Z" id="Fill-8" sketch:type="MSShapeGroup"></path>
				<path d="M21.0383868,19.7941261 C17.5878599,18.7067387 13.6670988,18.5094775 11.9413762,17.8169189 C11.3664415,17.570036 10.7388503,17.2248288 10.7388503,16.482955 C10.7388503,14.8025586 12.4119165,14.5066667 13.8761939,14.5066667 C14.7122678,14.5066667 15.5492601,14.7532432 16.1768512,15.2476216 C16.8561804,15.6923784 17.3267207,16.335009 17.3784587,17.1755135 L26.7892649,17.1755135 C26.5269012,10.6034054 19.4700211,9.07218018 13.6147486,9.07218018 C8.17705374,9.07218018 0.805765835,10.7516577 0.805765835,17.2248288 C0.805765835,21.6212432 3.99484741,23.9941982 11.8896382,25.2788468 C16.6988234,26.0691171 17.5878599,26.512955 17.5878599,27.9951712 C17.5878599,29.4776937 15.4439472,29.9723784 14.0852889,29.9723784 C12.8304127,29.9723784 11.8372879,29.6761802 11.3143973,29.2314234 C10.5297553,28.5878739 10.1121775,27.8469189 10.059215,26.958018 L0.17909309,26.958018 C0.221952975,28.7793153 0.785866603,30.2808288 1.7101094,31.5042162 L26.1965739,31.5042162 C27.0314232,30.2998198 27.5209443,28.805045 27.5209443,26.958018 C27.5209443,22.7579459 24.4886075,20.830973 21.0383868,19.7941261" id="Fill-9" sketch:type="MSShapeGroup"></path>
				<path d="M42.5770096,28.884991 C38.6038983,28.884991 38.0283512,25.6733694 38.0283512,22.5616036 C38.0283512,19.4476937 38.6038983,16.1867568 42.5770096,16.1867568 C43.6745288,16.1867568 44.562953,16.4838739 45.1905441,17.0275676 C45.8701795,17.570036 46.2363253,18.4108468 46.3413321,19.4476937 L56.1694098,19.4476937 C55.542737,12.3833514 49.4777572,9.07218018 42.3673023,9.07218018 C34.2116785,9.07218018 27.6770768,14.4582703 27.6770768,22.5616036 C27.6770768,26.1656036 28.972976,29.2213153 31.1266852,31.5042162 L53.6143484,31.5042162 C55.1064846,29.8161622 56.1198148,27.6812072 56.4835115,25.1296757 L46.6027774,25.1296757 C46.3930701,27.1552793 44.8253167,28.884991 42.5770096,28.884991" id="Fill-10" sketch:type="MSShapeGroup"></path>
				<path d="M75.7744395,23.2532432 C75.7744395,27.3537658 73.4220441,28.1942703 71.6442774,28.1942703 C68.6122466,28.1942703 68.2457946,26.1184324 68.2457946,23.1533874 L68.2457946,9.7145045 L57.8945202,9.7145045 L57.8945202,27.3044505 C57.8945202,28.9441081 58.2493388,30.3362703 58.8536631,31.5042162 L86.1260202,31.5042162 L86.1260202,9.7145045 L75.7744395,9.7145045 L75.7744395,23.2532432" id="Fill-11" sketch:type="MSShapeGroup"></path>
				<path d="M89.1060067,0.079027027 L99.4572812,0.079027027 L99.4572812,31.5036036 L89.1060067,31.5036036 L89.1060067,0.079027027 Z" id="Fill-12" sketch:type="MSShapeGroup"></path>
				<path d="M120.524445,9.07218018 C115.453815,9.07218018 113.886061,10.9005225 112.577917,12.5312973 L112.473828,12.5312973 L112.473828,9.7145045 L102.488087,9.7145045 L102.488087,31.5042162 L129.611353,31.5042162 C131.319013,28.9352252 131.921807,25.6409009 131.921807,22.6593153 C131.921807,16.2360721 128.210141,9.07218018 120.524445,9.07218018 Z M117.02218,28.884991 C113.310514,28.884991 112.473828,25.5747387 112.473828,22.5616036 C112.473828,19.4979279 113.310514,16.1867568 117.02218,16.1867568 C120.734153,16.1867568 121.570226,19.4979279 121.570226,22.5616036 C121.570226,25.5747387 120.734153,28.884991 117.02218,28.884991 Z" id="Fill-13" sketch:type="MSShapeGroup"></path>
				<path d="M204.643092,9.46792793 C203.649967,9.22043243 202.655006,9.07218018 201.609837,9.07218018 C197.846739,9.07218018 195.649864,10.7516577 193.97741,13.8159459 L193.872709,13.8159459 L193.872709,9.7145045 L183.939625,9.7145045 L183.939625,31.5042162 L194.290899,31.5042162 L194.290899,25.2283063 C194.290899,19.7438919 196.486856,17.4714054 200.564668,17.4714054 C202.655006,17.4714054 203.596699,17.7685225 204.643092,18.1137297 L204.643092,9.46792793" id="Fill-14" sketch:type="MSShapeGroup"></path>
				<path d="M207.567973,31.5042162 L231.24561,31.5042162 C232.173221,30.4842162 232.923881,29.2834955 233.448302,27.8971532 L223.775439,27.8971532 C222.939365,29.1324865 221.109248,29.7254955 219.436488,29.7254955 C216.195362,29.7254955 214.417595,27.6505766 214.157068,24.7351532 L234.023237,24.7351532 C234.023237,14.7544685 229.369878,9.07218018 218.600414,9.07218018 C210.027212,9.07218018 204.276334,15.1499099 204.276334,22.61 C204.276334,26.2951712 205.492942,29.2883964 207.567973,31.5042162 L207.567973,31.5042162 L207.567973,31.5042162 Z M219.541188,15.3474775 C222.207685,15.3474775 224.088928,17.2732252 224.088928,19.6461802 L214.208194,19.6461802 C214.679653,16.8793153 216.456807,15.3474775 219.541188,15.3474775 L219.541188,15.3474775 L219.541188,15.3474775 Z" id="Fill-15" sketch:type="MSShapeGroup"></path>
				<path d="M170.817765,23.2532432 C170.817765,27.3537658 168.465676,28.1942703 166.687909,28.1942703 C163.655266,28.1942703 163.289732,26.1184324 163.289732,23.1533874 L163.289732,9.7145045 L152.937845,9.7145045 L152.937845,27.3044505 C152.937845,28.9441081 153.293583,30.3362703 153.895764,31.5042162 L181.169652,31.5042162 L181.169652,9.7145045 L170.817765,9.7145045 L170.817765,23.2532432" id="Fill-16" sketch:type="MSShapeGroup"></path>
			</g>
		</g>
	</g>
</svg>